HIERARCHY
ROOT reference
{
  OFFSET 0 0 0
  CHANNELS 6 Xposition Yposition Zposition Zrotation Xrotation Yrotation
  JOINT Hips
  {
    OFFSET 16.5737 71.9916 83.7692
    CHANNELS 6 Xposition Yposition Zposition Zrotation Xrotation Yrotation
    JOINT Spine
    {
      OFFSET 0 7.81434 0
      CHANNELS 6 Xposition Yposition Zposition Zrotation Xrotation Yrotation
      JOINT Spine1
      {
        OFFSET 0 23.3781 0
        CHANNELS 6 Xposition Yposition Zposition Zrotation Xrotation Yrotation
        JOINT Neck
        {
          OFFSET 0 23.2821 2.11656
          CHANNELS 6 Xposition Yposition Zposition Zrotation Xrotation Yrotation
          JOINT Head
          {
            OFFSET 0 13.3416 -1.90594
            CHANNELS 6 Xposition Yposition Zposition Zrotation Xrotation Yrotation
            End Site
            {
              OFFSET 0 23.8242 0
            }
          }
        }
        JOINT LeftShoulder
        {
          OFFSET 3.82472 21.4916 -0.175476
          CHANNELS 6 Xposition Yposition Zposition Zrotation Xrotation Yrotation
          JOINT LeftArm
          {
            OFFSET 10.8239 0 0
            CHANNELS 6 Xposition Yposition Zposition Zrotation Xrotation Yrotation
            JOINT LeftForeArm
            {
              OFFSET 28.5356 0 0
              CHANNELS 6 Xposition Yposition Zposition Zrotation Xrotation Yrotation
              JOINT LeftHand
              {
                OFFSET 24.5315 0 0
                CHANNELS 6 Xposition Yposition Zposition Zrotation Xrotation Yrotation
                End Site
                {
                  OFFSET 14.2945 0 0
                }
              }
            }
          }
        }
        JOINT RightShoulder
        {
          OFFSET -3.77033 21.4916 -0.175476
          CHANNELS 6 Xposition Yposition Zposition Zrotation Xrotation Yrotation
          JOINT RightArm
          {
            OFFSET -10.8239 0 0
            CHANNELS 6 Xposition Yposition Zposition Zrotation Xrotation Yrotation
            JOINT RightForeArm
            {
              OFFSET -28.5356 0 0
              CHANNELS 6 Xposition Yposition Zposition Zrotation Xrotation Yrotation
              JOINT RightHand
              {
                OFFSET -24.5315 0 0
                CHANNELS 6 Xposition Yposition Zposition Zrotation Xrotation Yrotation
                End Site
                {
                  OFFSET -14.2945 0 0
                }
              }
            }
          }
        }
      }
    }
    JOINT LeftUpLeg
    {
      OFFSET 9.52968 0 0
      CHANNELS 6 Xposition Yposition Zposition Zrotation Xrotation Yrotation
      JOINT LeftLeg
      {
        OFFSET 0 -40.1884 0
        CHANNELS 6 Xposition Yposition Zposition Zrotation Xrotation Yrotation
        JOINT LeftFoot
        {
          OFFSET 0 -39.9954 0
          CHANNELS 6 Xposition Yposition Zposition Zrotation Xrotation Yrotation
          JOINT LeftToeBase
          {
            OFFSET 0 -6.19429 14.2945
            CHANNELS 6 Xposition Yposition Zposition Zrotation Xrotation Yrotation
            End Site
            {
              OFFSET 0 0 3.81187
            }
          }
        }
      }
    }
    JOINT RightUpLeg
    {
      OFFSET -9.52968 0 0
      CHANNELS 6 Xposition Yposition Zposition Zrotation Xrotation Yrotation
      JOINT RightLeg
      {
        OFFSET 0 -40.1884 0
        CHANNELS 6 Xposition Yposition Zposition Zrotation Xrotation Yrotation
        JOINT RightFoot
        {
          OFFSET 0 -39.9954 0
          CHANNELS 6 Xposition Yposition Zposition Zrotation Xrotation Yrotation
          JOINT RightToeBase
          {
            OFFSET 0 -6.19429 14.2945
            CHANNELS 6 Xposition Yposition Zposition Zrotation Xrotation Yrotation
            End Site
            {
              OFFSET 0 0 3.81187
            }
          }
        }
      }
    }
  }
}
MOTION
Frames:	4
Frame Time:	0.004
0 0 0 0 0 -0 -10.6881 69.3509 -145.74 -4.30608 7.09847 2.86033 1.77636e-015 7.81434 0 9.63169 26.6394 -5.00637 0 23.3781 0 9.51021 9.42878 -3.50702 7.10543e-015 23.2821 2.11656 1.50381 3.63647 4.50842 -1.77636e-015 13.3416 -1.90594 -19.4584 -13.0938 -0.454356 3.82472 21.4916 -0.175476 -13.8046 29.0886 4.32286 10.8239 0 0 -38.3985 40.3203 -27.8095 28.5356 0 -1.42109e-014 17.6323 -40.706 -103.56 24.5315 -1.42109e-014 1.42109e-014 -5.84699 -20.8136 -9.43098 -3.77033 21.4916 -0.175476 8.40572 20.2181 13.6655 -10.8239 -7.10543e-015 0 22.0408 18.4376 30.3872 -28.5356 0 0 -6.40675 -32.7528 16.155 -24.5315 0 0 8.43851 -30.5342 22.6802 9.52968 1.42109e-014 2.84217e-014 13.765 -21.3249 9.21279 0 -40.1884 -2.84217e-014 173.313 77.8822 -166.243 -7.10543e-015 -39.9954 0 -7.69079 -29.8293 -7.86492 0 -6.19429 14.2945 1.59028e-015 3.18055e-015 -1.59028e-015 -9.52968 0 0 -10.0327 -49.9709 -13.0051 1.42109e-014 -40.1884 -7.10543e-015 1.04316 66.0523 -8.84025 0 -39.9954 0 3.13335 -23.9363 1.85425 0 -6.19429 14.2945 6.95746e-016 3.97569e-016 1.59028e-015 
0 0 0 0 0 -0 -10.6472 69.4449 -145.445 -4.18567 7.09957 2.96706 1.77636e-015 7.81434 0 9.56428 26.7538 -4.9865 -1.77636e-015 23.3781 0 9.48536 9.4886 -3.49607 7.10543e-015 23.2821 2.11656 1.50192 3.57027 4.47444 -1.77636e-015 13.3416 -1.90594 -19.5102 -13.1616 -0.515156 3.82472 21.4916 -0.175476 -13.8238 29.146 4.28234 10.8239 0 0 -38.1814 40.3035 -28.0072 28.5356 0 1.42109e-014 16.9141 -40.7009 -104.401 24.5315 0 -7.10543e-015 -4.70764 -21.4978 -8.96685 -3.77033 21.4916 -0.175476 8.46483 20.0366 13.5876 -10.8239 0 2.84217e-014 22.1723 17.8376 30.4428 -28.5356 -1.42109e-014 2.84217e-014 -6.52822 -32.626 16.5941 -24.5315 7.10543e-015 0 9.39986 -30.1512 23.3372 9.52968 -7.10543e-015 -2.84217e-014 14.0051 -22.5687 9.73564 -7.10543e-015 -40.1884 1.42109e-014 174.491 76.3057 -167.564 7.10543e-015 -39.9954 0 -7.54889 -29.7673 -7.82231 0 -6.19429 14.2945 -1.59028e-015 6.36111e-015 2.38542e-015 -9.52968 0 0 -10.3363 -49.6632 -13.3643 -7.10543e-015 -40.1884 0 0.860308 66.0433 -8.61542 0 -39.9954 1.42109e-014 3.19069 -24.1203 1.90863 -7.10543e-015 -6.19429 14.2945 2.98177e-016 0 1.59028e-015 
0 0 0 0 0 -0 -10.5922 69.5532 -145.133 -4.06298 7.08514 3.05349 -8.88178e-016 7.81434 2.84217e-014 9.53306 26.8444 -4.97818 0 23.3781 0 9.3897 9.59421 -3.48795 3.55271e-015 23.2821 2.11656 1.46644 3.43679 4.46481 -1.77636e-015 13.3416 -1.90594 -19.474 -13.1308 -0.508328 3.82472 21.4916 -0.175476 -13.8257 29.2081 4.21523 10.8239 1.42109e-014 0 -38.0415 40.1575 -28.1467 28.5356 -2.84217e-014 0 17.0483 -41.1582 -104.485 24.5315 0 -1.42109e-014 -5.64431 -21.764 -9.49861 -3.77033 21.4916 -0.175476 8.53228 19.9397 13.5031 -10.8239 -2.13163e-014 0 22.1817 17.5401 30.6616 -28.5356 -1.42109e-014 0 -6.94084 -32.7856 16.9939 -24.5315 -7.10543e-015 0 9.43629 -30.226 23.4575 9.52968 1.42109e-014 2.84217e-014 14.1952 -23.7589 10.3076 0 -40.1884 0 174.948 74.7554 -168.657 0 -39.9954 -3.55271e-015 -7.28639 -29.7772 -7.21361 -7.10543e-015 -6.19429 14.2945 1.59028e-015 3.18055e-015 -2.38542e-015 -9.52968 0 2.84217e-014 -10.6022 -49.2982 -13.6202 0 -40.1884 -7.10543e-015 0.785822 65.9753 -8.50448 -7.10543e-015 -39.9954 0 3.26928 -24.3615 1.96129 0 -6.19429 14.2945 5.46658e-016 -1.98785e-016 -1.59028e-015 
0 0 0 0 0 -0 -10.5644 69.6401 -144.858 -3.98383 7.20125 3.1895 0 7.81434 0 9.49659 26.7991 -4.96164 0 23.3781 -2.84217e-014 9.36089 9.7345 -3.49327 -3.55271e-015 23.2821 2.11656 1.39227 3.34925 4.4478 7.10543e-015 13.3416 -1.90594 -19.4347 -13.2598 -0.529387 3.82472 21.4916 -0.175476 -13.8404 29.1774 4.16508 10.8239 0 0 -37.8685 40.1665 -28.2771 28.5356 0 1.42109e-014 16.6029 -41.3908 -105.073 24.5315 1.42109e-014 7.10543e-015 -5.49324 -22.4141 -9.31943 -3.77033 21.4916 -0.175476 8.58469 19.736 13.4737 -10.8239 1.42109e-014 0 22.1652 17.0101 30.6587 -28.5356 1.42109e-014 -1.42109e-014 -6.59245 -32.774 17.9806 -24.5315 -7.10543e-015 0 8.32259 -30.4208 23.2904 9.52968 -7.10543e-015 0 14.4938 -25.2231 10.866 7.10543e-015 -40.1884 0 175.578 73.1121 -169.904 0 -39.9954 0 -6.84271 -29.67 -6.59891 0 -6.19429 14.2945 8.82781e-032 -3.18055e-015 1.59028e-015 -9.52968 -1.42109e-014 0 -10.8572 -49.0935 -14.0042 -7.10543e-015 -40.1884 0 0.46618 65.915 -8.15163 -7.10543e-015 -39.9954 1.42109e-014 3.34463 -24.5654 2.01282 0 -6.19429 14.2945 -1.49089e-016 -5.96354e-016 1.59028e-015 
